<svg xmlns="http://www.w3.org/2000/svg" viewBox="0 0 1200 420" role="img" aria-label="ATV-Teams — human-directed AI teams">
  <defs>
    <linearGradient id="sky" x1="0" y1="0" x2="0" y2="1">
      <stop offset="0" stop-color="#fafafa"/>
      <stop offset="1" stop-color="#f4f4f5"/>
    </linearGradient>
    <linearGradient id="accent" x1="0" y1="0" x2="1" y2="0">
      <stop offset="0" stop-color="#0ea5e9"/>
      <stop offset="1" stop-color="#6366f1"/>
    </linearGradient>
  </defs>

  <rect width="1200" height="420" fill="url(#sky)"/>

  <!-- Decorative team-hierarchy graph -->
  <g transform="translate(110 110)" stroke="#a1a1aa" stroke-width="2" fill="none" stroke-linecap="round" opacity="0.7">
    <line x1="80" y1="40" x2="80" y2="120"/>
    <line x1="80" y1="120" x2="20" y2="200"/>
    <line x1="80" y1="120" x2="140" y2="200"/>
    <line x1="80" y1="120" x2="80" y2="200"/>
  </g>
  <g transform="translate(110 110)">
    <circle cx="80"  cy="30"  r="18" fill="#18181b"/>
    <circle cx="80"  cy="130" r="14" fill="#27272a"/>
    <circle cx="20"  cy="210" r="12" fill="#52525b"/>
    <circle cx="80"  cy="210" r="12" fill="#52525b"/>
    <circle cx="140" cy="210" r="12" fill="#52525b"/>
  </g>

  <!-- Wordmark -->
  <g font-family="'Inter', system-ui, -apple-system, 'Segoe UI', sans-serif" fill="#18181b">
    <text x="360" y="175" font-size="78" font-weight="700" letter-spacing="-2">ATV-Teams</text>
    <text x="360" y="225" font-size="26" font-weight="500" fill="#27272a">Human-directed AI teams.</text>
    <text x="360" y="262" font-size="20" font-weight="400" fill="#52525b">Open-source orchestration. Powered by GitHub Copilot.</text>
  </g>

  <!-- Accent bar -->
  <rect x="360" y="290" width="120" height="4" rx="2" fill="url(#accent)"/>

  <!-- Small tagline chips -->
  <g font-family="'Inter', system-ui, sans-serif" font-size="14" font-weight="500" fill="#3f3f46">
    <g transform="translate(360 320)">
      <rect width="78"  height="28" rx="14" fill="#e4e4e7"/><text x="14" y="19">CEO</text>
      <rect x="88"  width="78"  height="28" rx="14" fill="#e4e4e7"/><text x="102" y="19">CTO</text>
      <rect x="176" width="100" height="28" rx="14" fill="#e4e4e7"/><text x="190" y="19">Engineer</text>
      <rect x="286" width="60"  height="28" rx="14" fill="#e4e4e7"/><text x="300" y="19">QA</text>
    </g>
  </g>
</svg>
