<svg xmlns="http://www.w3.org/2000/svg" viewBox="0 0 1280 640" role="img">
  <defs>
    <linearGradient id="sky" x1="0" y1="0" x2="0" y2="1">
      <stop offset="0" stop-color="#fafafa"/>
      <stop offset="1" stop-color="#e4e4e7"/>
    </linearGradient>
    <linearGradient id="accent" x1="0" y1="0" x2="1" y2="0">
      <stop offset="0" stop-color="#0ea5e9"/>
      <stop offset="1" stop-color="#6366f1"/>
    </linearGradient>
  </defs>

  <rect width="1280" height="640" fill="url(#sky)"/>

  <!-- Decorative team-hierarchy graph -->
  <g transform="translate(170 200)" stroke="#a1a1aa" stroke-width="3" fill="none" stroke-linecap="round" opacity="0.75">
    <line x1="100" y1="40" x2="100" y2="150"/>
    <line x1="100" y1="150" x2="20" y2="260"/>
    <line x1="100" y1="150" x2="180" y2="260"/>
    <line x1="100" y1="150" x2="100" y2="260"/>
  </g>
  <g transform="translate(170 200)">
    <circle cx="100" cy="30"  r="22" fill="#18181b"/>
    <circle cx="100" cy="160" r="17" fill="#27272a"/>
    <circle cx="20"  cy="270" r="14" fill="#52525b"/>
    <circle cx="100" cy="270" r="14" fill="#52525b"/>
    <circle cx="180" cy="270" r="14" fill="#52525b"/>
  </g>

  <g font-family="'Inter', system-ui, -apple-system, 'Segoe UI', sans-serif" fill="#18181b">
    <text x="500" y="240" font-size="110" font-weight="700" letter-spacing="-3">ATV-Teams</text>
    <text x="500" y="305" font-size="36" font-weight="500" fill="#27272a">Autonomous software-development teams.</text>
    <text x="500" y="355" font-size="28" font-weight="400" fill="#52525b">Open-source orchestration. Powered by GitHub Copilot.</text>
  </g>

  <rect x="500" y="395" width="160" height="6" rx="3" fill="url(#accent)"/>

  <g font-family="'Inter', system-ui, sans-serif" font-size="20" font-weight="500" fill="#3f3f46">
    <g transform="translate(500 430)">
      <rect width="110" height="40" rx="20" fill="#e4e4e7"/><text x="22" y="27">CEO</text>
      <rect x="125" width="110" height="40" rx="20" fill="#e4e4e7"/><text x="151" y="27">CTO</text>
      <rect x="250" width="150" height="40" rx="20" fill="#e4e4e7"/><text x="275" y="27">Engineer</text>
      <rect x="415" width="90"  height="40" rx="20" fill="#e4e4e7"/><text x="441" y="27">QA</text>
    </g>
  </g>

  <text x="500" y="540" font-family="'Inter', monospace" font-size="18" fill="#71717a">github.com/shyamsridhar123/ATV-Teams</text>
</svg>
